<svg width="70" height="70" viewBox="0 0 70 70" fill="none" xmlns="http://www.w3.org/2000/svg">
<path d="M26.25 50.75L50.75 35L26.25 19.25V50.75ZM35 70C30.1583 70 25.6083 69.0807 21.35 67.242C17.0917 65.4033 13.3875 62.9102 10.2375 59.7625C7.0875 56.6125 4.59433 52.9083 2.758 48.65C0.921667 44.3917 0.00233333 39.8417 0 35C0 30.1583 0.919333 25.6083 2.758 21.35C4.59667 17.0917 7.08983 13.3875 10.2375 10.2375C13.3875 7.0875 17.0917 4.59433 21.35 2.758C25.6083 0.921667 30.1583 0.00233333 35 0C39.8417 0 44.3917 0.919333 48.65 2.758C52.9083 4.59667 56.6125 7.08983 59.7625 10.2375C62.9125 13.3875 65.4068 17.0917 67.2455 21.35C69.0842 25.6083 70.0023 30.1583 70 35C70 39.8417 69.0807 44.3917 67.242 48.65C65.4033 52.9083 62.9102 56.6125 59.7625 59.7625C56.6125 62.9125 52.9083 65.4068 48.65 67.2455C44.3917 69.0842 39.8417 70.0023 35 70Z" fill="white" fill-opacity="0.64"/>
</svg>
