<svg width="169" height="169" viewBox="0 0 169 169" fill="none" xmlns="http://www.w3.org/2000/svg">
<path d="M63.375 122.525L122.525 84.5L63.375 46.475V122.525ZM84.5 169C72.8108 169 61.8258 166.78 51.545 162.341C41.2642 157.902 32.3212 151.883 24.7162 144.284C17.1113 136.679 11.092 127.736 6.6586 117.455C2.22517 107.174 0.00563333 96.1892 0 84.5C0 72.8108 2.21953 61.8258 6.6586 51.545C11.0977 41.2642 17.1169 32.3212 24.7162 24.7162C32.3212 17.1113 41.2642 11.092 51.545 6.6586C61.8258 2.22517 72.8108 0.00563333 84.5 0C96.1892 0 107.174 2.21953 117.455 6.6586C127.736 11.0977 136.679 17.1169 144.284 24.7162C151.889 32.3212 157.911 41.2642 162.35 51.545C166.789 61.8258 169.006 72.8108 169 84.5C169 96.1892 166.78 107.174 162.341 117.455C157.902 127.736 151.883 136.679 144.284 144.284C136.679 151.889 127.736 157.911 117.455 162.35C107.174 166.789 96.1892 169.006 84.5 169Z" fill="black" fill-opacity="0.49"/>
</svg>
